<svg width="624" height="224" viewBox="0 0 624 224" fill="none" xmlns="http://www.w3.org/2000/svg">
<g filter="url(#filter0_dd_116_15)">
<path d="M612 132C612 176.183 576.183 212 532 212L92 212C47.8172 212 12 176.183 12 132L12 92C12 47.8172 47.8172 12 92 12L532 12C576.183 12 612 47.8173 612 92L612 132Z" fill="url(#paint0_linear_116_15)" fill-opacity="0.6" shape-rendering="crispEdges"/>
<path d="M532 210.875L92 210.875C48.4385 210.875 13.125 175.561 13.125 132L13.125 91.9999C13.125 48.4385 48.4386 13.125 92 13.125L532 13.125C575.561 13.125 610.875 48.4386 610.875 92L610.875 132C610.875 175.561 575.561 210.875 532 210.875Z" stroke="url(#paint1_linear_116_15)" stroke-opacity="0.6" stroke-width="2.25" shape-rendering="crispEdges"/>
</g>
<defs>
<filter id="filter0_dd_116_15" x="2.38419e-06" y="2.38419e-06" width="624" height="224" filterUnits="userSpaceOnUse" color-interpolation-filters="sRGB">
<feFlood flood-opacity="0" result="BackgroundImageFix"/>
<feColorMatrix in="SourceAlpha" type="matrix" values="0 0 0 0 0 0 0 0 0 0 0 0 0 0 0 0 0 0 127 0" result="hardAlpha"/>
<feOffset dx="3" dy="3"/>
<feGaussianBlur stdDeviation="4.5"/>
<feComposite in2="hardAlpha" operator="out"/>
<feColorMatrix type="matrix" values="0 0 0 0 0 0 0 0 0 0 0 0 0 0 0 0 0 0 0.25 0"/>
<feBlend mode="normal" in2="BackgroundImageFix" result="effect1_dropShadow_116_15"/>
<feColorMatrix in="SourceAlpha" type="matrix" values="0 0 0 0 0 0 0 0 0 0 0 0 0 0 0 0 0 0 127 0" result="hardAlpha"/>
<feOffset dx="-3" dy="-3"/>
<feGaussianBlur stdDeviation="4.5"/>
<feComposite in2="hardAlpha" operator="out"/>
<feColorMatrix type="matrix" values="0 0 0 0 1 0 0 0 0 1 0 0 0 0 1 0 0 0 0.8 0"/>
<feBlend mode="normal" in2="effect1_dropShadow_116_15" result="effect2_dropShadow_116_15"/>
<feBlend mode="normal" in="SourceGraphic" in2="effect2_dropShadow_116_15" result="shape"/>
</filter>
<linearGradient id="paint0_linear_116_15" x1="612" y1="212" x2="208.328" y2="-186.751" gradientUnits="userSpaceOnUse">
<stop stop-color="white" stop-opacity="0.8"/>
<stop offset="1" stop-color="white" stop-opacity="0.2"/>
</linearGradient>
<linearGradient id="paint1_linear_116_15" x1="612" y1="212" x2="208.328" y2="-186.751" gradientUnits="userSpaceOnUse">
<stop stop-color="white"/>
<stop offset="1" stop-color="white" stop-opacity="0"/>
</linearGradient>
</defs>
</svg>
