<svg width="91" height="84" viewBox="0 0 91 84" fill="none" xmlns="http://www.w3.org/2000/svg">
<path d="M54.2574 0C57.8874 0 61.2462 1.91855 63.0844 5.0425L66.7908 11.3393H76.2125C84.3793 11.3393 91 17.9472 91 26.0985V69.2408C91 77.392 84.3793 84 76.2125 84H14.7875C6.62057 84 0 77.392 0 69.2408V26.0985C0 17.9472 6.62057 11.3393 14.7875 11.3393H24.2534L28.2328 4.8712C30.0948 1.84444 33.3982 0 36.9569 0H54.2574ZM45.5 24.9632C34.192 24.9632 25.025 34.1127 25.025 45.3991C25.025 56.6851 34.192 65.8349 45.5 65.8349C56.8081 65.8349 65.975 56.6851 65.975 45.3991C65.975 34.1127 56.8081 24.9632 45.5 24.9632ZM45.5 31.7751C53.0389 31.7751 59.15 37.8747 59.15 45.3991C59.15 52.9231 53.0389 59.023 45.5 59.023C37.9611 59.023 31.85 52.9231 31.85 45.3991C31.85 37.8747 37.9611 31.7751 45.5 31.7751Z" fill="#4EA852"/>
</svg>
