<svg width="94" height="94" viewBox="0 0 94 94" fill="none" xmlns="http://www.w3.org/2000/svg">
<path d="M63.45 35.861C57.3606 39.1062 51.8114 43.2761 47 48.222C42.2147 43.2465 36.6605 39.0729 30.55 35.861C31.678 22.842 37.224 10.058 47.282 0C57.246 9.964 62.557 22.748 63.45 35.861ZM47 63.215C57.105 47.799 74.354 37.6 94 37.6C94 84.6 50.196 93.436 47 94C43.804 93.483 0 84.6 0 37.6C19.646 37.6 36.895 47.799 47 63.215ZM47.235 14.993C44.133 19.881 41.971 25.286 40.796 30.926L47 35.485L53.345 30.879C52.264 25.239 50.196 19.834 47.235 14.993ZM47 84.459C47 84.459 75.2 79.9 83.378 48.175C56.4 56.4 47 80.37 47 80.37C47 80.37 32.9 51.7 10.622 48.222C18.8 79.9 47 84.459 47 84.459Z" fill="#4EA852"/>
</svg>
