<svg width="70" height="70" viewBox="0 0 70 70" fill="none" xmlns="http://www.w3.org/2000/svg">
<path fill-rule="evenodd" clip-rule="evenodd" d="M34.8128 0.00325581H35.1839C42.7013 0.00325581 48.5908 0.00325601 53.1878 0.621832C57.8889 1.25343 61.6004 2.57523 64.5142 5.48579C67.428 8.39961 68.7466 12.1111 69.3782 16.8155C69.9967 21.4092 69.9967 27.2987 69.9967 34.8161V35.1026C69.9967 41.3176 69.9967 46.403 69.6581 50.5442C69.3196 54.7114 68.6261 58.1852 67.0699 61.0762C66.3884 62.3481 65.5365 63.4952 64.5142 64.5175C61.6004 67.4313 57.8889 68.7498 53.1845 69.3814C48.5908 70 42.7013 70 35.1839 70H34.8128C27.2955 70 21.406 70 16.809 69.3814C12.1078 68.7498 8.39635 67.428 5.48254 64.5175C2.9008 61.9357 1.56597 58.7224 0.859495 54.7309C0.159528 50.8144 0.0325565 45.9407 0.00651124 39.8916C0.00217036 38.3506 0 36.7206 0 35.0016V34.8128C0 27.2955 1.94053e-07 21.406 0.618576 16.809C1.25017 12.1078 2.57197 8.39635 5.48254 5.48254C8.39635 2.56872 12.1078 1.25017 16.8122 0.618576C21.406 1.94053e-07 27.2955 0 34.8128 0M17.4601 5.45649C13.2994 6.01646 10.7893 7.08432 8.93679 8.93679C7.08107 10.7925 6.01646 13.2994 5.45649 17.4634C4.89001 21.6957 4.88349 27.2564 4.88349 34.9984V37.7462L8.14241 34.8942C9.57188 33.6429 11.4235 32.9817 13.3223 33.0446C15.221 33.1074 17.0249 33.8897 18.3684 35.2328L32.3352 49.1996C33.4191 50.2832 34.8504 50.9498 36.3773 51.082C37.9042 51.2142 39.4288 50.8035 40.6828 49.9223L41.6529 49.2386C43.4621 47.9674 45.649 47.3477 47.8561 47.4807C50.0632 47.6138 52.1598 48.4918 53.8031 49.9712L63.0166 58.2633C63.9477 56.3165 64.4979 53.7575 64.7909 50.147C65.11 46.2239 65.1133 41.3339 65.1133 34.9984C65.1133 27.2564 65.1067 21.6957 64.5403 17.4634C63.9803 13.2994 62.9124 10.7893 61.0599 8.93354C59.2042 7.08107 56.6974 6.01646 52.5334 5.45649C48.301 4.89001 42.7403 4.88349 34.9984 4.88349C27.2564 4.88349 21.6925 4.89001 17.4601 5.45649Z" fill="#4EA852"/>
</svg>
