<svg width="42" height="45" viewBox="0 0 42 45" fill="none" xmlns="http://www.w3.org/2000/svg">
<path d="M14.0931 39.2335H27.8987C27.3417 42.5065 24.4633 45 20.9959 45C17.5285 45 14.6499 42.5065 14.0931 39.2335ZM20.9959 0C30.6609 0 38.4962 7.74987 38.4962 17.3098V26.5383L41.8056 33.8317C41.9337 34.114 42 34.42 42 34.7295C42 35.9405 41.0076 36.9221 39.7833 36.9221H2.21726C1.90508 36.9221 1.59644 36.857 1.31151 36.7307C0.194129 36.2359 -0.306194 34.9388 0.194036 33.8335L3.49553 26.5392L3.49577 17.28L3.50608 16.7032C3.83058 7.40039 11.5594 0 20.9959 0Z" fill="#4EA852"/>
</svg>
