<svg width="60" height="60" viewBox="0 0 60 60" fill="none" xmlns="http://www.w3.org/2000/svg">
<path d="M60 13.3333V60H0V0H46.6667L60 13.3333ZM30 50C32.7778 50 35.1389 49.0278 37.0833 47.0833C39.0278 45.1389 40 42.7778 40 40C40 37.2222 39.0278 34.8611 37.0833 32.9167C35.1389 30.9722 32.7778 30 30 30C27.2222 30 24.8611 30.9722 22.9167 32.9167C20.9722 34.8611 20 37.2222 20 40C20 42.7778 20.9722 45.1389 22.9167 47.0833C24.8611 49.0278 27.2222 50 30 50ZM10 23.3333H40V10H10V23.3333Z" fill="#4EA852"/>
</svg>
