<svg width="66" height="59" viewBox="0 0 66 59" fill="none" xmlns="http://www.w3.org/2000/svg">
<path d="M65.0338 27.1826L38.6335 0.959713C38.172 0.501438 37.584 0.189365 36.944 0.0629462C36.3039 -0.0634726 35.6405 0.00143882 35.0376 0.249474C34.4347 0.49751 33.9194 0.917532 33.5567 1.45644C33.1941 1.99536 33.0005 2.62896 33.0004 3.27716V14.8972C23.9856 15.7258 15.6066 19.8659 9.50308 26.5074C3.39954 33.1489 0.0107968 41.8137 0 50.8061V55.7228C0.00052093 56.4033 0.214204 57.0667 0.611411 57.621C1.00862 58.1754 1.56966 58.5932 2.21672 58.8166C2.86378 59.0399 3.56478 59.0577 4.22249 58.8675C4.88021 58.6773 5.46203 58.2886 5.88726 57.7551C9.12079 53.9368 13.0877 50.7966 17.5565 48.5179C22.0253 46.2391 26.9063 44.8675 31.9146 44.4831C32.0796 44.4634 32.4921 44.4306 33.0004 44.3979V55.7228C33.0005 56.371 33.1941 57.0046 33.5567 57.5436C33.9194 58.0825 34.4347 58.5025 35.0376 58.7505C35.6405 58.9986 36.3039 59.0635 36.944 58.9371C37.584 58.8106 38.172 58.4986 38.6335 58.0403L65.0338 31.8174C65.6525 31.2028 66 30.3692 66 29.5C66 28.6308 65.6525 27.7972 65.0338 27.1826ZM39.6004 47.8101V40.9725C39.6004 40.1032 39.2527 39.2694 38.6339 38.6547C38.015 38.04 37.1756 37.6946 36.3004 37.6946C35.4589 37.6946 32.0235 37.8585 31.1457 37.9733C22.2515 38.7863 13.7851 42.1428 6.77167 47.6364C7.56779 40.4069 11.0206 33.723 16.469 28.8646C21.9174 24.0062 28.9785 21.3147 36.3004 21.3054C37.1756 21.3054 38.015 20.96 38.6339 20.3453C39.2527 19.7306 39.6004 18.8968 39.6004 18.0275V11.1899L58.0344 29.5L39.6004 47.8101Z" fill="#4EA852"/>
</svg>
