<svg width="59" height="56" viewBox="0 0 59 56" fill="none" xmlns="http://www.w3.org/2000/svg">
<path d="M11.3193 26.0696V55.2102H1.31543V26.0696H11.3193ZM22.5537 26.0696L42.376 33.4026V33.4036C43.0202 33.6637 43.4672 34.0079 43.7559 34.4211C44.0432 34.8329 44.2002 35.3521 44.2002 36.009C44.2002 36.729 43.9492 37.3684 43.415 37.9026C42.8639 38.4536 42.2189 38.7698 41.4121 38.7698H33.832L29.124 36.967L28.6436 36.7825L28.4736 37.2678L27.5693 39.844L27.4033 40.3157L27.875 40.4817L33.5742 42.4817L33.6553 42.51H52.9209C54.2641 42.51 55.4135 42.9466 56.3516 43.8215L56.5361 44.0032C57.4357 44.9259 57.9185 45.9755 57.9766 47.1458L36.458 55.1838L17.7998 49.8528V26.0696H22.5537ZM41.9609 1.40845C49.2472 1.40868 55.161 7.3224 55.1611 14.6086C55.1611 21.895 49.2472 27.8086 41.9609 27.8088C34.6745 27.8088 28.7598 21.8951 28.7598 14.6086C28.7599 7.32226 34.6745 1.40845 41.9609 1.40845Z" fill="#4EA852" stroke="#4EA852"/>
</svg>
