<svg width="66" height="66" viewBox="0 0 66 66" fill="none" xmlns="http://www.w3.org/2000/svg">
<path d="M28.8154 0.536621C29.7455 0.536674 30.5445 0.841482 31.2129 1.45166L31.3447 1.57861L46.5898 16.8228C47.2844 17.5173 47.6318 18.3607 47.6318 19.353C47.6318 19.6749 47.5753 19.9967 47.4639 20.3188C47.3799 20.5613 47.2967 20.7762 47.2129 20.9624L47.1289 21.1392C47.0454 21.3061 46.916 21.5014 46.7412 21.7251L46.5518 21.9585C46.4148 22.1203 46.2949 22.2585 46.1924 22.3735L45.9355 22.6489C45.8672 22.7173 45.769 22.8101 45.6416 22.9282L45.1709 23.3579L44.4971 23.9751C43.7526 24.6697 42.9097 25.017 41.9678 25.0171C41.7815 25.0171 41.6092 25.0058 41.4512 24.9849L41.2979 24.9604C41.1495 24.9326 40.9975 24.8875 40.8418 24.8247L40.6855 24.7563C40.4737 24.6567 40.3047 24.5817 40.1797 24.5317C40.0884 24.4952 39.9719 24.4173 39.8301 24.2964L39.6807 24.1616C39.4696 23.9629 39.3252 23.8375 39.249 23.7866C39.213 23.7626 39.1541 23.712 39.0732 23.6343L38.7656 23.3218L38.3164 22.854L38.3057 22.8647L38.2949 22.8765C38.6405 23.2221 38.8134 23.6414 38.8135 24.1353C38.8135 24.5678 38.681 24.9434 38.416 25.2622L38.2949 25.395L33.5762 30.1138L43.1523 39.6899L43.1631 39.7017L43.1738 39.6899C44.2424 38.6214 45.4346 38.0885 46.75 38.0884C47.9604 38.0884 49.0291 38.4917 49.9561 39.2993L50.1396 39.4663L63.7031 53.0298C64.6217 53.9983 65.081 55.1276 65.0811 56.4185C65.0811 57.6523 64.6775 58.7117 63.8701 59.5962L63.7031 59.77L59.7051 63.8052C58.7364 64.7242 57.6066 65.1841 56.3154 65.1841C55.0818 65.184 54.0231 64.7803 53.1387 63.9731L52.9639 63.8062L39.4004 50.2056V50.2046L39.2285 50.0347C38.3995 49.1707 37.9854 48.1102 37.9854 46.853C37.9854 45.5377 38.5183 44.3454 39.5869 43.2769L39.5986 43.2661L39.5869 43.2554L30.0107 33.6792L25.292 38.3979C24.9462 38.7437 24.5263 38.9165 24.0322 38.9165C23.5999 38.9164 23.2249 38.7838 22.9062 38.519L22.7734 38.3979L22.7617 38.4087L22.751 38.4194L23.2188 38.8687C23.3493 38.993 23.4537 39.0956 23.5312 39.1763C23.609 39.2572 23.6596 39.316 23.6836 39.3521C23.709 39.3901 23.7529 39.4452 23.8154 39.5171L24.0586 39.7837C24.2575 39.995 24.38 40.1612 24.4287 40.2827C24.4537 40.3453 24.485 40.4191 24.5225 40.5034L24.6533 40.7886C24.7276 40.9466 24.7848 41.1007 24.8242 41.2515L24.8574 41.4009C24.8946 41.599 24.9141 41.8225 24.9141 42.0708C24.914 42.9542 24.6089 43.7508 23.998 44.4604L23.8721 44.6001L23.2549 45.2739C23.0869 45.4606 22.9433 45.6172 22.8252 45.7446L22.5459 46.0386C22.4776 46.1069 22.3856 46.1927 22.2705 46.2954L21.8555 46.6548C21.6129 46.86 21.3987 47.0195 21.2129 47.1333L21.0361 47.2319C20.8128 47.3436 20.5391 47.455 20.2158 47.5669C19.8937 47.6784 19.5718 47.7348 19.25 47.7349C18.3196 47.7349 17.5201 47.4294 16.8516 46.8188L16.7197 46.6929L1.47559 31.4478C0.781131 30.7533 0.433651 29.9106 0.433594 28.9185C0.433594 28.6771 0.464675 28.4354 0.527344 28.1938L0.600586 27.9517C0.684477 27.7093 0.768779 27.4953 0.852539 27.3091L0.936523 27.1313C1.02001 26.9645 1.14858 26.769 1.32324 26.5454L1.51367 26.313C1.65079 26.1509 1.77038 26.0121 1.87305 25.897L2.12891 25.6226C2.19727 25.5542 2.29523 25.4606 2.42285 25.3423L2.89453 24.9136L3.56738 24.2964C4.31202 23.6014 5.1554 23.2544 6.09766 23.2544C6.28399 23.2544 6.4562 23.2647 6.61426 23.2856L6.76758 23.3101C6.91567 23.3379 7.06733 23.3832 7.22266 23.4458L7.37988 23.5142C7.48574 23.564 7.58086 23.6076 7.66504 23.645L7.88477 23.7388C7.97593 23.7752 8.09273 23.8534 8.23438 23.9741L8.38477 24.1099C8.49049 24.2094 8.5794 24.2905 8.65137 24.353L8.81641 24.4849C8.85244 24.5089 8.91039 24.5595 8.99121 24.6372L9.2998 24.9497L9.74805 25.4165L9.77051 25.395C9.42473 25.0492 9.25195 24.6294 9.25195 24.1353C9.25202 23.6413 9.4248 23.2222 9.77051 22.8765L22.7734 9.87354C23.1191 9.52782 23.5382 9.35504 24.0322 9.35498C24.4646 9.35498 24.8405 9.48667 25.1592 9.75146L25.292 9.87354L25.3135 9.85107L24.8467 9.40283C24.716 9.27836 24.6118 9.17496 24.5342 9.09424C24.4952 9.05366 24.4629 9.01897 24.4375 8.98975L24.3818 8.91943C24.3565 8.88145 24.3125 8.82632 24.25 8.75439L24.0068 8.48779C23.8574 8.32901 23.7509 8.19544 23.6865 8.0874L23.6357 7.98779C23.6108 7.92536 23.5794 7.85217 23.542 7.76807L23.4111 7.48291C23.3369 7.32505 23.2806 7.17062 23.2412 7.02002L23.207 6.87061C23.1699 6.67253 23.1514 6.44893 23.1514 6.20068C23.1514 5.31723 23.4565 4.52074 24.0674 3.81104L24.1934 3.67041L24.8105 2.99756C24.9786 2.81089 25.1211 2.65336 25.2393 2.52588L25.5195 2.23193C25.5877 2.16377 25.6791 2.07847 25.7939 1.97607L26.21 1.6167C26.4526 1.41141 26.6667 1.252 26.8525 1.13818L27.0283 1.03955C27.1401 0.983677 27.2646 0.927521 27.4014 0.871582L27.8486 0.703613C28.1709 0.592055 28.4934 0.536621 28.8154 0.536621Z" fill="#4EA852" stroke="#4EA852" stroke-width="0.03125"/>
</svg>
