<svg width="61" height="61" viewBox="0 0 61 61" fill="none" xmlns="http://www.w3.org/2000/svg">
<path d="M21.0806 0.154541C22.7457 0.154541 24.3585 0.34251 25.9185 0.718018L26.5835 0.889893C28.1285 1.31906 29.584 1.90604 30.9487 2.65063L31.5278 2.97974C33.0581 3.8822 34.4509 4.96146 35.7065 6.21704C36.9621 7.47259 38.0511 8.87524 38.9731 10.425C39.8952 11.975 40.5921 13.6233 41.063 15.3694C41.5338 17.1154 41.7787 18.9497 41.7983 20.8723L41.7837 21.6213C41.7641 22.1192 41.7254 22.6147 41.6665 23.1077L41.563 23.845C41.406 24.8259 41.1805 25.7871 40.8862 26.7288L40.8823 26.7278L40.8872 26.7327L60.6372 46.4524V60.429H45.5737V52.8977H45.5698V52.8938H38.0386V45.3616H38.0347V45.3577H30.5034V39.2688H30.4917L29.9507 39.5442C28.8488 40.0832 27.708 40.5167 26.5288 40.8459L25.936 41.0022C24.347 41.3945 22.7284 41.5901 21.0806 41.5901C19.1776 41.5901 17.3433 41.3452 15.5776 40.8547C13.8119 40.3643 12.1636 39.6674 10.6333 38.7649C9.29441 37.9753 8.06076 37.0504 6.93213 35.9905L6.45459 35.5286C5.35584 34.4298 4.38487 33.2179 3.5415 31.8938L3.18799 31.3196C2.38114 29.9634 1.74699 28.5321 1.28564 27.0256L1.09814 26.3762C0.627284 24.6301 0.382413 22.7951 0.362793 20.8723L0.374512 20.1624C0.420483 18.7477 0.604332 17.3718 0.92627 16.0344L1.09814 15.3694C1.52735 13.8243 2.11422 12.369 2.85889 11.0042L3.18799 10.425C3.9776 9.08617 4.90247 7.8525 5.9624 6.72388L6.42529 6.24634C7.52395 5.1477 8.73512 4.17656 10.0591 3.33325L10.6333 2.97974C11.9894 2.17291 13.4209 1.53875 14.9272 1.07739L15.5776 0.889893C17.1054 0.477932 18.7008 0.238647 20.3638 0.172119L21.0806 0.154541ZM15.4292 9.56567C14.742 9.56569 14.0921 9.67803 13.48 9.90356L13.2202 10.0081C12.533 10.3026 11.9339 10.7046 11.4233 11.2151C10.9767 11.6617 10.6129 12.1762 10.3315 12.7581L10.2163 13.012C9.92176 13.6992 9.77394 14.4356 9.77393 15.2209C9.77393 15.9081 9.88633 16.5581 10.1118 17.1702L10.2163 17.4299C10.474 18.0312 10.8137 18.5654 11.2368 19.0315L11.4233 19.2268C11.87 19.6734 12.3845 20.0373 12.9663 20.3186L13.2202 20.4348C13.9075 20.7293 14.6439 20.8762 15.4292 20.8762C16.1164 20.8762 16.7663 20.7638 17.3784 20.5383L17.6382 20.4348C18.2396 20.1771 18.7737 19.8365 19.2397 19.4133L19.4351 19.2268C19.8817 18.7801 20.2455 18.2658 20.5269 17.6838L20.6431 17.4299C20.9375 16.7427 21.0845 16.0062 21.0845 15.2209C21.0845 14.5337 20.9721 13.8839 20.7466 13.2717L20.6431 13.012C20.3853 12.4105 20.0448 11.8765 19.6216 11.4104L19.4351 11.2151C18.9884 10.7684 18.474 10.4046 17.8921 10.1233L17.6382 10.0081C16.9509 9.71351 16.2146 9.56567 15.4292 9.56567Z" fill="#4EA852" stroke="#4EA852" stroke-width="0.0078125"/>
</svg>
