<svg width="56" height="56" viewBox="0 0 56 56" fill="none" xmlns="http://www.w3.org/2000/svg">
<path d="M27.998 1.427C28.5059 1.42871 28.9924 1.56672 29.4639 1.85474L29.665 1.98755C30.1773 2.35048 30.5668 2.87821 30.8223 3.60083L35.8506 20.2473L35.958 20.6028H51.8613C52.5607 20.6028 53.1374 20.8125 53.6191 21.2229C54.0751 21.6113 54.4005 22.0379 54.6074 22.5022L54.6885 22.7043C54.882 23.2347 54.9129 23.829 54.7578 24.5032C54.6153 25.1225 54.2633 25.6252 53.667 26.0208L53.6611 26.0247L53.6543 26.0295L41.0723 34.967L40.7783 35.176L40.8848 35.5217L45.8301 51.5735L45.833 51.5842L45.8369 51.595C46.0569 52.211 46.0684 52.7592 45.8965 53.262L45.8115 53.4749C45.5287 54.0942 45.1355 54.5714 44.6338 54.9211C44.1361 55.2681 43.5645 55.4581 42.9043 55.4846L42.6748 55.4827C42.1451 55.4551 41.643 55.2546 41.1582 54.8577L41.1514 54.8528L41.1445 54.8469L28.3027 45.0422L28 44.8108L27.6963 45.0422L14.8545 54.8469L14.8477 54.8518L14.8408 54.8577C14.2894 55.3087 13.7123 55.5075 13.0938 55.4846L12.8496 55.467C12.2905 55.4096 11.7995 55.2265 11.3672 54.9221C10.9293 54.6138 10.5743 54.2094 10.3027 53.6995L10.1914 53.4749C9.93575 52.9169 9.91323 52.3003 10.1631 51.593L10.1689 51.5735L15.1152 35.5217L15.2217 35.176L14.9268 34.967L2.3457 26.0295L2.33887 26.0256L2.33301 26.0208L2.12012 25.8665C1.7179 25.5481 1.45115 25.1702 1.30469 24.7288L1.24121 24.5022C1.10574 23.9149 1.11251 23.3866 1.24609 22.9065L1.31055 22.7034C1.48408 22.2261 1.77376 21.7874 2.19238 21.3879L2.37988 21.219C2.80094 20.8603 3.29497 20.6567 3.87988 20.6125L4.13672 20.6028H20.041L20.1484 20.2473L25.1758 3.60278C25.4034 2.96924 25.7323 2.48453 26.1533 2.12817L26.3398 1.98267C26.804 1.65089 27.2825 1.4729 27.7822 1.43481L27.998 1.427Z" fill="#4EA852" stroke="#4EA852"/>
</svg>
