<svg width="60" height="61" viewBox="0 0 60 61" fill="none" xmlns="http://www.w3.org/2000/svg">
<path d="M29.7831 0.0376832C29.6855 0.0552783 29.5891 0.0791358 29.4946 0.109107C28.9736 0.225694 28.5092 0.519044 28.1806 0.939169C27.8519 1.35929 27.6794 1.8802 27.6923 2.41311V4.71712H6.92308C5.08696 4.71712 3.32605 5.44535 2.02772 6.7416C0.729393 8.03786 0 9.79596 0 11.6291L0 41.5812C0 45.3967 3.10154 48.4932 6.92308 48.4932H27.6923V49.3573L15.1431 55.6218C14.5886 55.8892 14.1631 56.3655 13.9604 56.946C13.7576 57.5265 13.7942 58.1637 14.0619 58.7173C14.3297 59.2709 14.8068 59.6956 15.3882 59.8981C15.9696 60.1005 16.6078 60.064 17.1623 59.7967L27.6923 54.5413V55.4053C27.6923 56.0163 27.9354 56.6024 28.3682 57.0344C28.801 57.4665 29.388 57.7093 30 57.7093C30.612 57.7093 31.199 57.4665 31.6318 57.0344C32.0646 56.6024 32.3077 56.0163 32.3077 55.4053V54.5413L42.8377 59.7967C43.3922 60.064 44.0304 60.1005 44.6118 59.8981C45.1932 59.6956 45.6703 59.2709 45.9381 58.7173C46.2058 58.1637 46.2424 57.5265 46.0396 56.946C45.8369 56.3655 45.4114 55.8892 44.8569 55.6218L32.3077 49.3573V48.4932H53.0769C56.8985 48.4932 60 45.3967 60 41.5812V11.6291C60 9.79596 59.2706 8.03786 57.9723 6.7416C56.674 5.44535 54.913 4.71712 53.0769 4.71712H32.3077V2.41311C32.3193 2.08548 32.2608 1.75913 32.1361 1.45588C32.0113 1.15263 31.8231 0.879455 31.5842 0.654608C31.3452 0.429761 31.0609 0.25842 30.7503 0.152032C30.4397 0.0456441 30.11 0.0066596 29.7831 0.0376832ZM4.61538 11.6291H55.3846V41.5812H4.61538V11.6291ZM48.1731 13.9331C47.6562 13.9886 47.1731 14.2168 46.8023 14.5806L39.2308 22.1423L33.9669 16.8823C33.7148 16.624 33.4055 16.4285 33.0639 16.3113C32.7224 16.1942 32.358 16.1587 32.0002 16.2078C31.6423 16.2569 31.301 16.3891 31.0037 16.5939C30.7064 16.7987 30.4615 17.0703 30.2885 17.3869L23.4369 29.34L20.6238 22.2829C20.4872 21.9185 20.2604 21.5946 19.9646 21.3413C19.6687 21.0881 19.3135 20.9138 18.9319 20.8347C18.5504 20.7555 18.155 20.7742 17.7826 20.8888C17.4102 21.0034 17.073 21.2104 16.8023 21.4903L9.87923 28.4023C9.66103 28.62 9.48792 28.8785 9.36978 29.163C9.25163 29.4475 9.19077 29.7524 9.19066 30.0604C9.19055 30.3684 9.25121 30.6733 9.36915 30.9579C9.4871 31.2425 9.66003 31.5011 9.87808 31.7189C10.0961 31.9368 10.355 32.1096 10.64 32.2276C10.9249 32.3455 11.2303 32.4063 11.5388 32.4064C11.8473 32.4065 12.1527 32.3459 12.4378 32.2282C12.7228 32.1104 12.9818 31.9378 13.2 31.7201L17.5985 27.3286L20.9169 35.5355C21.0735 35.9471 21.345 36.3053 21.6992 36.5676C22.0534 36.83 22.4754 36.9855 22.9154 37.0158C23.3553 37.0461 23.7948 36.9499 24.1817 36.7386C24.5686 36.5273 24.8867 36.2097 25.0985 35.8235L32.8154 22.3589L37.5738 27.1121C37.789 27.3343 38.0469 27.5111 38.3319 27.6318C38.617 27.7525 38.9234 27.8148 39.2331 27.8148C39.5427 27.8148 39.8492 27.7525 40.1342 27.6318C40.4193 27.5111 40.6771 27.3343 40.8923 27.1121L50.1231 17.896C50.4876 17.5591 50.7335 17.1137 50.8242 16.626C50.915 16.1384 50.8456 15.6346 50.6266 15.1894C50.4075 14.7442 50.0505 14.3815 49.6084 14.1552C49.1664 13.9289 48.663 13.851 48.1731 13.9331Z" fill="#4EA852"/>
</svg>
