<svg width="52" height="64" viewBox="0 0 52 64" fill="none" xmlns="http://www.w3.org/2000/svg">
<path d="M47.0986 1.75586H4.9013C4.10191 1.75586 3.33527 2.07341 2.77001 2.63867C2.20476 3.20392 1.88721 3.97056 1.88721 4.76995V59.0236C1.88721 59.823 2.20476 60.5896 2.77001 61.1549C3.33527 61.7201 4.10191 62.0377 4.9013 62.0377H47.0986C47.898 62.0377 48.6646 61.7201 49.2299 61.1549C49.7951 60.5896 50.1127 59.823 50.1127 59.0236V4.76995C50.1127 3.97056 49.7951 3.20392 49.2299 2.63867C48.6646 2.07341 47.898 1.75586 47.0986 1.75586Z" stroke="#4EA852" stroke-width="2" stroke-linecap="round" stroke-linejoin="round"/>
<path d="M35.0423 30.3896L29.8204 25.1677M29.8204 25.1677C30.5346 24.4713 31.1034 23.6399 31.4938 22.7219C31.8843 21.8039 32.0885 20.8175 32.0948 19.82C32.101 18.8224 31.9092 17.8336 31.5303 16.9107C31.1514 15.9879 30.593 15.1495 29.8875 14.4442C29.1821 13.7388 28.3436 13.1806 27.4208 12.8018C26.4979 12.4231 25.509 12.2313 24.5114 12.2377C23.5139 12.2441 22.5275 12.4485 21.6096 12.8391C20.6916 13.2296 19.8604 13.7986 19.164 14.5129C17.7613 15.9283 16.9764 17.8418 16.9811 19.8345C16.9857 21.8273 17.7795 23.737 19.1888 25.1459C20.5981 26.5548 22.5081 27.3481 24.5008 27.3522C26.4936 27.3563 28.4053 26.5708 29.8204 25.1677ZM15.4507 40.9389H36.5493M15.4507 49.9812H26" stroke="#4EA852" stroke-width="2" stroke-linecap="round" stroke-linejoin="round"/>
</svg>
