<svg width="71" height="53" viewBox="0 0 71 53" fill="none" xmlns="http://www.w3.org/2000/svg">
<path d="M34.4212 52.2158C32.4182 52.2158 30.4973 51.4201 29.0809 50.0037C27.6646 48.5874 26.8689 46.6664 26.8689 44.6634V7.98058C26.8689 3.81168 30.2523 0.428223 34.4212 0.428223H62.4728C66.6417 0.428223 70.0252 3.81168 70.0252 7.98058V44.6634C70.0252 46.6664 69.2295 48.5874 67.8131 50.0037C66.3968 51.4201 64.4758 52.2158 62.4728 52.2158H34.4212ZM33.3423 44.6634C33.3423 45.259 33.8257 45.7423 34.4212 45.7423H62.4728C62.759 45.7423 63.0334 45.6287 63.2357 45.4263C63.4381 45.224 63.5517 44.9496 63.5517 44.6634V7.98058C63.5517 7.69443 63.4381 7.42001 63.2357 7.21767C63.0334 7.01534 62.759 6.90167 62.4728 6.90167H34.4212C34.1351 6.90167 33.8607 7.01534 33.6583 7.21767C33.456 7.42001 33.3423 7.69443 33.3423 7.98058V44.6634ZM22.1217 6.93619C22.3346 7.30425 22.473 7.71067 22.5288 8.13221C22.5846 8.55375 22.5568 8.98216 22.447 9.39296C22.3372 9.80376 22.1475 10.1889 21.8888 10.5264C21.6301 10.8638 21.3074 11.147 20.9392 11.3597C20.7741 11.454 20.6368 11.5903 20.5413 11.7548C20.4458 11.9193 20.3955 12.106 20.3954 12.2962V40.3478C20.3954 40.7362 20.6026 41.0944 20.9392 41.2843C21.682 41.7147 22.2235 42.4225 22.4444 43.252C22.6654 44.0816 22.5477 44.965 22.1174 45.7078C21.687 46.4506 20.9792 46.9921 20.1496 47.213C19.32 47.434 18.4367 47.3163 17.6939 46.886C16.5469 46.2228 15.5946 45.2695 14.9325 44.1219C14.2705 42.9743 13.922 41.6727 13.922 40.3478V12.2962C13.922 9.49536 15.4454 7.05703 17.6939 5.75371C18.0619 5.54077 18.4683 5.40244 18.8899 5.34662C19.3114 5.2908 19.7398 5.31859 20.1506 5.42841C20.5614 5.53822 20.9466 5.7279 21.284 5.98661C21.6215 6.24533 21.909 6.568 22.1217 6.93619ZM7.988 15.6753C7.82287 15.7697 7.6856 15.906 7.59011 16.0704C7.49462 16.2349 7.44429 16.4217 7.44423 16.6118V36.0322C7.44423 36.4206 7.65138 36.7788 7.988 36.9687C8.35581 37.1818 8.67805 37.4652 8.93632 37.8028C9.19458 38.1405 9.38382 38.5257 9.49322 38.9364C9.60263 39.3472 9.63005 39.7755 9.57394 40.1968C9.51782 40.6182 9.37926 41.0244 9.16617 41.3922C8.95307 41.76 8.66962 42.0822 8.33199 42.3405C7.99437 42.5988 7.60917 42.788 7.19841 42.8974C6.78765 43.0068 6.35936 43.0342 5.938 42.9781C5.51664 42.922 5.11046 42.7834 4.74265 42.5704C3.59649 41.9066 2.64505 40.9531 1.98377 39.8055C1.3225 38.6579 0.974638 37.3566 0.975101 36.0322V16.6118C0.97388 15.2866 1.32138 13.9844 1.98269 12.836C2.64401 11.6876 3.59586 10.7335 4.74265 10.0693C5.11074 9.85625 5.5172 9.71774 5.93883 9.66173C6.36045 9.60573 6.78898 9.63331 7.19994 9.74291C7.6109 9.85252 7.99625 10.042 8.33399 10.3005C8.67172 10.5591 8.95523 10.8816 9.16832 11.2497C9.38142 11.6178 9.51992 12.0242 9.57593 12.4458C9.63194 12.8675 9.60435 13.296 9.49475 13.707C9.38515 14.1179 9.19567 14.5033 8.93714 14.841C8.67861 15.1787 8.35609 15.4623 7.988 15.6753Z" fill="#4EA852"/>
</svg>
